<?xml version="1.0" encoding="UTF-8"?>
<svg id="Layer_1" xmlns="http://www.w3.org/2000/svg" version="1.1" viewBox="0 0 351.8 187">
  <!-- Generator: Adobe Illustrator 29.7.1, SVG Export Plug-In . SVG Version: 2.1.1 Build 8)  -->
  <defs>
    <style>
      .st0 {
        fill: #3d4127;
      }
    </style>
  </defs>
  <path class="st0" d="M149.2,68.7l-2.3-12c-3.1-3-4.9-7.2-7.6-10.5s-1.1-.6-1.3-1.2c-.4-1.3,2.6-6.5,2.9-8.1l-4.6-6.4c-.3-1.2.6-2.4,1.8-1.8s4.4,5.2,4.9,6.2,1,1.7.6,3.1-2.9,6-2.9,6.7l5.8,8c.3-6.8,7.9-12.2,14.5-10.1s2.4,1.3,2.9,1.2l11.9-5.9.9.2,11.2,5.7c.5,0,2.3-1,2.9-1.2,6.6-2.1,14,3.3,14.6,10.1l5.7-8c0-.8-2.5-5.5-2.9-6.7s0-2,.7-3.2,4.2-5.9,5-6.1c1.3-.4,2.1.9,1.6,2l-4.5,6.1c.2,1.7,3.3,6.9,2.9,8.3s-.9.8-1.3,1.2c-2.1,2.5-3.7,5.6-5.6,8.3s-1.9,2.1-2,2.3c-.4.8-2.1,9.9-2.2,11.3s-.1.6,0,.7l73.5-49.9c21.4-2.6,42.8-5.3,64.2-7.7,1.1-.1,4.6-1.2,5,.2s-1.2,4.8-1.8,6.3c-3.4,8.5-7.4,16.7-10.9,25.1l-.8.9-57.4,36.2-.8.3-63.1,6.9,3.1.4,61.2,4.1c.9.2,1.2,1.5.9,2.4l-11.6,22.4-1.1,1.2c-10.2,3.5-20.8,5.7-31.1,8.8-1.1.3-2.4,1.3-3.4.9l-19.9-21.5-.9,26.4c2,3.4,4.3,6.7,6.2,10.2.4.7,1.2,1.9,1.2,2.6,0,1.4-1.7,7.2-3.7,5.7s1.1-4,.9-4.9c-2.5-4-5-8-7-12.3v-13.5c.3-4.8.3-9.6.4-14.3,0-.9.6-2.1,0-3l-3.2-3.3c.4,1.4,1.8,2.8,2,4.3.6,3-.7,9.3-1.3,12.5-1.2,6.7-2.6,10.8-5.5,16.9-6.2,13.2-12.8,26.3-19.3,39.4-.7,1.5-2.3,6.2-4.3,3.3-6.7-14.3-14.2-28.3-20.9-42.7-2.3-4.8-3.7-8.2-4.8-13.4-.8-3.8-2.7-12.5-2-16s1.7-2.8,2-4.3c-.7.9-2.8,2.5-3.2,3.3s0,2,0,3c.2,9.3.5,18.5.4,27.8-2,4.3-4.5,8.3-7,12.3-.3.9,2.5,3.8.9,4.9-2.1,1.5-3.8-4.3-3.7-5.7s.9-1.9,1.2-2.6c1.9-3.5,4.2-6.8,6.2-10.2-.6-7.9-.3-16-.9-24,0-.8,0-1.6,0-2.5l-19.9,21.5c-1,.5-2.3-.5-3.4-.9-10.3-3-20.9-5.2-31.1-8.8l-1.1-1.2-11.6-22.4c-.3-.8,0-2.2.9-2.4l61.2-4.1,3.1-.4c-20.5-2.5-41.1-4.2-61.6-6.8-.4,0-.8,0-1.2,0-19.7-11.8-38.8-24.6-58.4-36.6l-.8-.9c-4.2-9.9-8.8-19.7-12.6-29.8-.8-3.6,2.9-2,5-1.8,21.4,2.5,42.8,5.1,64.2,7.7l73.6,49.9ZM38.4,18.7c-2.4-.9-5.1-1.5-7.2-3l-22.4-2.8,4.7,11.3.6.5,24-5.6.3-.4ZM313.4,19.1l24.5,5.5,5.1-11.7-22.5,2.8c-1.8,1.5-4.6,1.9-6.7,2.9s-.4-.1-.3.4ZM84.5,28.5l-.3-1.6-8.7-5.9c-12.1-1-24.2-3-36.2-4.3l15.7,6.6,29.4,5.1ZM312.6,16.7c-12.1,1.4-24.1,3.3-36.2,4.3-1.2.8-8.4,5.2-8.7,5.9s0,1.1-.3,1.6l29.4-5.1,15.7-6.6ZM51.5,23.8l-10.1-3.9-.5.6-26,6.6,3.1,7.6,30.3-7.3c.2,0,2.7-2.7,2.9-3s.3-.2.2-.5ZM310.6,20l-10.2,3.8c0,.3,0,.4.2.5.2.3,2.6,2.9,2.8,3l30.6,7.4c.5-2.4,2.4-5,2.9-7.3s.2-.3-.1-.5l-25.8-6.3-.4-.6ZM88.1,37.5l-2.9-6.6-31.5-5.7-3.3,2.8,9.6,4.5,28.1,5ZM301.4,28.1l-3.3-2.9-31.5,5.7-2.9,6.6,28.1-5,9.6-4.4ZM58.1,33.6l-9.1-4.2-29.8,7.4c-.2,0-.4-.1-.3.3s1.6,4.1,1.8,4.3,4.2,2.9,4.4,3,.3.1.5,0c9-2.6,18-5.5,27-8.2s3.2-.6,4.1-1.1,1-1.2,1.4-1.7ZM332.9,36.8l-30.1-7.4-9.1,4.2c.5.4.9,1.4,1.4,1.7.9.4,2.9.7,4.1,1.1,9,2.7,17.9,5.6,27,8.2.2,0,.3,0,.5,0,.3,0,4.3-2.8,4.4-3,.3-.3,1.9-4.5,1.8-4.6ZM102,46.9c0-.3-.4-.4-.6-.5-4.2-2.5-8.7-5-13.1-7l-28-4.6-1.5,1.4,1.5,6.9,41.7,3.9ZM291.6,43l1.5-6.7-1.6-1.6-28.8,4.8-12.9,7.3,41.7-3.9ZM56.9,37.7l-28.9,8.6,8.4,5.2c.2,0,1.9-.4,2.3-.5,4.6-1.3,9.8-3.9,14.3-5.6,1.7-.6,3.4-1.2,5.2-1.8l-1.3-6ZM323.9,46.1l-28.6-8.4c-.5,0-.3,0-.3.3-.5,1.7-.8,3.6-1.3,5.4v.3c7.4,2.3,14.3,5.6,21.6,7.9l8.6-5.5ZM185.3,69.6c.3-1.4.8-2.8,1.3-4.2s2-4.5,2.3-6,0-.5,0-.7c-3.7-4.6-7.1-9.4-10.7-14s-2.1-2.7-2.4-2.7l-12.9,16.6c-.1.3,0,.5,0,.7.3,1.5,1.7,4.4,2.3,6,.5,1.4,1,2.7,1.3,4.2h18.8ZM161.6,44.8c-5.2-1.6-12,.9-13.1,6.6l13.1-6.6ZM203.3,51.4c-1.1-5.7-7.9-8.3-13.1-6.6l13.1,6.6ZM72.3,46.3l-12.5-1.2c-6.1,3.5-13.8,4.7-20,7.7-.2.1-.5.2-.6.4,2.1,1,4.9,3.6,6.9,4.4s.7.2,1.1.1l20.2-5.9,5-5.6ZM279.6,46.3l5,5.6,20.2,5.9c.4.1.7,0,1.1-.1,2.1-.8,4.8-3.4,6.9-4.4-6.7-3-14.1-4.8-20.7-8.1l-12.5,1.2ZM128.4,62.7v-1.4c.1,0-23.5-12.3-23.5-12.3-9.9-.4-19.7-1.8-29.5-2.6l-5.9,6.3,6.3,7.8c4,.8,8.9,2.9,12.8,3.4s11.6-.3,16.5-.4c5.7-.2,11.3-.4,16.9-.6,2.1,0,4.2,0,6.3-.2ZM223.5,62.7c2.1.2,4.2.1,6.3.2,5.6.3,11.3.5,16.9.6,4.9.1,11.8,1,16.5.4,3.9-.5,8.9-2.6,12.8-3.4l6.3-7.8-5.9-6.3c-9.9.7-19.7,2.2-29.5,2.6l-23.6,12.3v1.4ZM48.9,59.3l11.9,7.6,12.9-5.4-6.1-7.3-18.7,5.1ZM302.9,59.3l-18.7-5.1-6.1,7.3,12.9,5.4,11.9-7.6ZM140.6,64.9l-9.6-6.4-1.1,9.6,10.7-3.2ZM222,68.1l-1.1-9.6-9.6,6.4,10.7,3.2ZM87.5,66l-11.4-2.8-13,5.2,14.9,9.5,13.1,1.3-.7-1.1-3-12.1ZM288.8,68.3l-13-5.1-11.4,2.8-3,12.1-.7,1.1,13.1-1.3,14.9-9.6ZM128.2,64.9l-38.3,1.6,3.1,11.9,34.4-9.5c.4-.2.4-.8.5-1.2.1-.9.1-1.9.3-2.8ZM262,66.2l-38.3-1.3.5,3.7.3.3,34.4,9.5,3.1-12.2ZM164.8,71.7l-10.7.2,10.8,11.8v-12ZM197.8,71.9l-10.7-.2-.2,12,10.9-11.8ZM165.4,87.2l-9,4.6,13.3,8.2-4.3-12.8ZM195.4,91.6l-9-4.5-4.3,12.8,13.3-8.3ZM148.9,95.5c.3,0,.4,0,.5-.2.3-.2,3-3.1,3.1-3.4.2-.6,0-3.8-.5-3.9l-7.4.6,4.3,6.8ZM207.2,88.6l-7.4-.6c-.5.1-.7,3.3-.5,3.9s2.8,3.2,3.1,3.4.2.3.5.2l4.3-6.8ZM132.9,90.6l-25.1,5.6-4.1,3.1v.4c-.1,0,2.1,1.2,2.1,1.2,2.8-.2,5.7-.8,8.5-.6l18.6-9.8ZM248.3,99.3l-4.2-3.2-25.1-5.6,18.6,9.8c2.8-.2,5.7.4,8.5.6l2.1-1.2v-.4ZM112.8,122.7c.5,0,.9,0,1.4-.2,1-.6,5-5,6.1-6.1,4.9-5,9.5-10.2,14.3-15.2,2.8-2.9,5.9-5.8,8.6-8.8.8-.9,0-.8-.6-.4-7.6,3.8-14.9,8.4-22.5,12.2l-7.3,18.5ZM239.1,122.7c-2.2-6.2-5.2-12.2-7.3-18.5-7.6-3.8-14.9-8.4-22.5-12.2-.7-.4-1.4-.5-.6.4,2.7,3,5.8,5.9,8.6,8.8,4.8,5,9.5,10.2,14.3,15.2s5.8,6.1,6.6,6.3.6,0,.9,0ZM105.7,95.3l-7.6-3.4c-5.8.6-11.7.7-17.6,1.3-.5,0-2.7.2-2.7.5l6.3,11.6,16.7-6.1,4.8-3.9ZM246.2,95.3l4.8,3.9,16.7,6.1,6.3-11.6c0-.3-2.2-.5-2.7-.5-5.8-.6-11.7-.7-17.6-1.3l-7.6,3.4ZM102.9,101.7l-1.9-.7-16.1,6.2,2.1,4.2h.5s15.4-9.6,15.4-9.6ZM266.9,107.1l-16.1-6.1-1.9.7,15.4,9.6h.5s2.2-4.2,2.2-4.2ZM112.1,101.9l-6.4.5c-5.5,4.1-11.5,7.4-17.3,11l1,2.2c1.9.9,2.7,0,4.3-.8,2.6-1.6,5.2-3.5,7.7-5.1,2.1-1.3,8.6-4.7,9.8-6.3s.6-1,.9-1.6ZM262.4,115.8c.2-.2.6-1.7,1.1-2v-.3c-5.9-3.6-11.8-7-17.3-11l-6.4-.5c.3.5.5,1.1.9,1.6,1.2,1.6,7.6,4.9,9.8,6.3,2.6,1.6,5.1,3.5,7.7,5.1.5.3,1.9,1.2,2.3,1.3s1.8-.3,1.9-.4ZM180.6,104.3h-9.4l4.5,10.7c.5.1.3,0,.5-.3,1.9-2.9,2.9-7.2,4.4-10.4ZM166.9,105.1l-17.3.9,2.1,13.1,15.2-13.9ZM202.3,106l-17.3-.9,15.1,13.9,2.2-13.1ZM114.9,105.3l-3.5.4-18.1,10.8,4.9,1.5,16.7-12.7ZM258.6,116.5c-6.2-3.3-12.2-6.9-18.1-10.7l-3.5-.4,16.7,12.7c.3,0,3.9-1,4.4-1.2s.5-.2.5-.4ZM111.2,122l5.1-15-15.8,11.7,10.7,3.3ZM240.6,122l10.7-3.3-15.8-11.7,5.1,15ZM115.5,123.5l5.9,1.7c.3,0,1.2-.8,1.4-1,.9-.8,5.4-5.7,5.7-6.5s.4-3.5.4-4.5,0-2.4,0-3.5c-3.7,3.7-7.6,7.2-11.1,11-.5.6-1.8,1.8-2.1,2.4s-.3.2-.2.5ZM236.3,123.5c0-.3,0-.4-.2-.5-.4-.5-1.6-1.8-2.1-2.4-3.5-3.8-7.5-7.3-11.1-11,0,1.2,0,2.4,0,3.5s.2,3.8.4,4.5,4.8,5.6,5.7,6.5,1.2,1,1.4,1l5.9-1.7ZM199.7,123.1c-3.4-.2-6.7-1.4-10-2.1-4.6-1-9.3-1.6-13.9-2.7-7.8,1.3-15.6,3.5-23.3,4.7-.3,0-.4-.1-.3.3s2.2,4.5,2.5,4.6c4.9-1,9.9-1.3,14.9-1.9,1.9-.2,4.7-1.1,6.5-1.1s4.3.8,6.2,1.1c4.9.6,9.9.9,14.8,1.9.3,0,.4-.1.5-.3.2-.3,1.9-3.5,2.1-3.9s.1-.4,0-.7ZM192.8,137c-5.9-.3-11.8-1.9-17.7-2.2l-16.2,2.3,1.9,4h30s.3-.1.3-.1l1.7-3.9ZM186.8,150.1h-21.8l2.1,4.3h17.8s2-4.3,2-4.3Z"/>
</svg>