<?xml version="1.0" encoding="UTF-8"?>
<svg id="Layer_1" xmlns="http://www.w3.org/2000/svg" version="1.1" viewBox="0 0 329.4 161">
  <!-- Generator: Adobe Illustrator 29.7.1, SVG Export Plug-In . SVG Version: 2.1.1 Build 8)  -->
  <defs>
    <style>
      .st0 {
        fill: #3d4127;
      }
    </style>
  </defs>
  <path class="st0" d="M85.8,37.6l-1.3-7.1c-1.8-1.8-2.9-4.3-4.5-6.2s-.6-.4-.7-.7c-.2-.8,1.5-3.8,1.7-4.8l-2.7-3.8c-.2-.7.3-1.4,1.1-1.1s2.6,3.1,2.9,3.7.6,1,.3,1.8-1.7,3.5-1.7,4l3.4,4.8c.2-4,4.7-7.2,8.6-6s1.4.8,1.7.7l7-3.5h.5c0,.1,6.6,3.5,6.6,3.5.3,0,1.3-.6,1.7-.7,3.9-1.3,8.3,1.9,8.6,6l3.4-4.8c0-.5-1.5-3.3-1.7-4s0-1.2.4-1.9,2.5-3.5,3-3.6c.8-.2,1.2.5.9,1.2l-2.7,3.6c.1,1,2,4.1,1.7,4.9s-.6.5-.7.7c-1.2,1.5-2.2,3.3-3.3,4.9s-1.1,1.2-1.2,1.4c-.3.5-1.2,5.8-1.3,6.7s0,.4,0,.4l43.4-29.5c12.6-1.6,25.3-3.1,38-4.6.7,0,2.7-.7,3,.1s-.7,2.8-1.1,3.7c-2,5-4.4,9.9-6.4,14.8l-.5.5-33.9,21.4-.5.2-37.3,4.1,1.8.3,36.2,2.4c.6.1.7.9.5,1.4l-6.9,13.3-.7.7c-6,2.1-12.3,3.4-18.4,5.2-.7.2-1.4.8-2,.5l-11.8-12.7-.5,15.6c1.2,2,2.6,4,3.7,6.1s.7,1.1.7,1.6c0,.8-1,4.2-2.2,3.4s.7-2.4.5-2.9c-1.5-2.4-2.9-4.8-4.1-7.3v-8c.2-2.8.2-5.7.2-8.5s.3-1.2,0-1.8l-1.9-2c.2.8,1,1.7,1.2,2.5.3,1.8-.4,5.5-.7,7.4-.7,4-1.6,6.4-3.3,10-3.7,7.8-7.6,15.6-11.4,23.3-.4.9-1.4,3.7-2.5,1.9-4-8.5-8.4-16.8-12.4-25.2-1.3-2.9-2.2-4.8-2.8-7.9s-1.6-7.4-1.2-9.5,1-1.7,1.2-2.5c-.4.5-1.6,1.5-1.9,2s0,1.2,0,1.8c.1,5.5.3,11,.2,16.5-1.2,2.5-2.7,4.9-4.1,7.3-.1.5,1.5,2.3.5,2.9s-2.3-2.5-2.2-3.4.5-1.1.7-1.6c1.1-2.1,2.5-4,3.7-6.1-.4-4.7-.2-9.5-.5-14.2s0-1,0-1.5l-11.8,12.7c-.6.3-1.4-.3-2-.5-6.1-1.8-12.4-3.1-18.4-5.2l-.7-.7-6.9-13.3c-.2-.5,0-1.3.5-1.4l36.2-2.4,1.8-.3c-12.1-1.5-24.3-2.5-36.4-4s-.5,0-.7,0c-11.7-7-23-14.5-34.6-21.6l-.5-.5C6.3,16.3,3.6,10.5,1.4,4.5c-.5-2.1,1.7-1.2,3-1.1,12.7,1.5,25.3,3,38,4.6l43.5,29.5ZM20.3,7.9c-1.4-.5-3-.9-4.2-1.8l-13.2-1.6,2.8,6.7.3.3,14.2-3.3.2-.3ZM183,8.2l14.5,3.3,3-6.9-13.3,1.7c-1.1.9-2.7,1.1-4,1.7s-.2,0-.2.3ZM47.6,13.7l-.2-.9-5.1-3.5c-7.2-.6-14.3-1.7-21.4-2.6l9.3,3.9,17.4,3ZM182.5,6.8c-7.1.8-14.3,2-21.4,2.6-.7.5-5,3.1-5.1,3.5s0,.6-.2.9l17.4-3,9.3-3.9ZM28.1,11l-6-2.3-.3.4-15.4,3.9,1.8,4.5,17.9-4.3c.1,0,1.6-1.6,1.7-1.8s.2-.1.1-.3ZM181.3,8.7l-6.1,2.3c0,.2,0,.2.1.3.1.2,1.5,1.7,1.7,1.8l18.1,4.4c.3-1.4,1.4-3,1.7-4.3s.1-.2,0-.3l-15.3-3.8-.2-.3ZM49.7,19.1l-1.7-3.9-18.6-3.4-2,1.7,5.7,2.7,16.6,2.9ZM175.9,13.5l-2-1.7-18.6,3.4-1.7,3.9,16.6-2.9,5.7-2.6ZM32,16.8l-5.4-2.5-17.6,4.4c-.1,0-.2,0-.2.2s.9,2.4,1.1,2.6,2.5,1.7,2.6,1.7.2,0,.3,0c5.3-1.5,10.6-3.2,15.9-4.8s1.9-.4,2.4-.6.6-.7.9-1ZM194.5,18.7l-17.8-4.4-5.4,2.5c.3.3.5.8.9,1,.5.2,1.7.4,2.4.6,5.3,1.6,10.6,3.3,15.9,4.8.1,0,.2,0,.3,0,.1,0,2.5-1.6,2.6-1.7.2-.2,1.1-2.6,1.1-2.7ZM57.9,24.6c0-.2-.2-.2-.4-.3-2.5-1.5-5.2-3-7.7-4.2l-16.5-2.7-.9.8.9,4.1,24.7,2.3ZM170,22.4l.9-4-.9-.9-17,2.8-7.6,4.3,24.7-2.3ZM31.2,19.2l-17.1,5.1,4.9,3.1c.1,0,1.1-.2,1.4-.3,2.7-.8,5.8-2.3,8.5-3.3s2-.7,3.1-1.1l-.7-3.5ZM189.2,24.1l-16.9-4.9c-.3,0-.1,0-.2.2-.3,1-.5,2.1-.8,3.2v.2c4.4,1.3,8.5,3.3,12.8,4.6l5.1-3.3ZM107.2,38c.2-.8.5-1.7.8-2.5s1.2-2.7,1.4-3.6,0-.3,0-.4c-2.2-2.7-4.2-5.5-6.3-8.3s-1.3-1.6-1.4-1.6l-7.6,9.8c0,.1,0,.3,0,.4.2.9,1,2.6,1.4,3.6s.6,1.6.8,2.5h11.1ZM93.2,23.4c-3-1-7.1.5-7.7,3.9l7.7-3.9ZM117.9,27.3c-.6-3.4-4.7-4.9-7.7-3.9l7.7,3.9ZM40.3,24.3l-7.4-.7c-3.6,2.1-8.2,2.8-11.8,4.6-.1,0-.3.1-.4.3,1.2.6,2.9,2.2,4.1,2.6s.4.1.6,0l12-3.5,2.9-3.3ZM162.9,24.3l2.9,3.3,12,3.5c.2,0,.4,0,.6,0,1.2-.5,2.8-2,4.1-2.6-4-1.8-8.3-2.8-12.2-4.8l-7.4.7ZM73.5,34v-.8c0,0-13.9-7.3-13.9-7.3-5.8-.2-11.6-1.1-17.5-1.5l-3.5,3.8,3.7,4.6c2.4.5,5.3,1.7,7.6,2s6.9-.2,9.7-.2,6.7-.2,10-.4c1.2,0,2.5,0,3.7-.1ZM129.8,34c1.2,0,2.5,0,3.7.1,3.3.2,6.7.3,10,.4s7,.6,9.7.2,5.2-1.5,7.6-2l3.7-4.6-3.5-3.8c-5.8.4-11.6,1.3-17.5,1.5l-14,7.3v.8ZM26.5,32l7,4.5,7.6-3.2-3.6-4.3-11.1,3ZM176.8,32l-11.1-3-3.6,4.3,7.6,3.2,7-4.5ZM80.7,35.3l-5.7-3.8-.6,5.7,6.3-1.9ZM128.9,37.2l-.6-5.7-5.7,3.8,6.3,1.9ZM49.3,35.9l-6.7-1.7-7.7,3.1,8.8,5.6,7.8.8-.4-.7-1.8-7.2ZM168.4,37.3l-7.7-3-6.7,1.7-1.8,7.2-.4.7,7.8-.8,8.8-5.7ZM73.4,35.3l-22.7.9,1.8,7,20.4-5.6c.2-.1.3-.5.3-.7,0-.5,0-1.1.2-1.7ZM152.6,36l-22.7-.8.3,2.2.2.2,20.4,5.6,1.8-7.2ZM95.1,39.3h-6.3c0,.1,6.4,7.1,6.4,7.1v-7.1ZM114.6,39.5h-6.3c0-.1-.1,7-.1,7l6.5-7ZM95.4,48.4l-5.3,2.7,7.9,4.9-2.5-7.6ZM113.2,51.1l-5.3-2.7-2.5,7.6,7.9-4.9ZM85.7,53.4c.2,0,.2,0,.3-.1.2-.1,1.8-1.9,1.8-2,0-.3,0-2.2-.3-2.3l-4.4.4,2.5,4ZM120.1,49.3l-4.4-.4c-.3,0-.4,2-.3,2.3s1.6,1.9,1.8,2,.1.2.3.1l2.5-4ZM76.2,50.5l-14.8,3.3-2.4,1.9v.3c0,0,1.2.7,1.2.7,1.7-.1,3.3-.5,5-.4l11-5.8ZM144.5,55.7l-2.5-1.9-14.8-3.3,11,5.8c1.7-.1,3.3.3,5,.4l1.2-.7v-.3ZM64.3,69.5c.3,0,.5,0,.8-.1.6-.3,2.9-2.9,3.6-3.6,2.9-2.9,5.6-6,8.5-9s3.5-3.4,5.1-5.2,0-.5-.4-.3c-4.5,2.2-8.8,5-13.3,7.2l-4.3,11ZM139,69.5c-1.3-3.7-3.1-7.2-4.3-11-4.5-2.3-8.8-5-13.3-7.2s-.8-.3-.4.3c1.6,1.8,3.4,3.5,5.1,5.2,2.8,3,5.6,6,8.5,9s3.4,3.6,3.9,3.7.4,0,.5,0ZM60.1,53.2l-4.5-2c-3.4.4-6.9.4-10.4.8s-1.6.1-1.6.3l3.7,6.9,9.9-3.6,2.8-2.3ZM143.2,53.2l2.8,2.3,9.9,3.6,3.7-6.9c0-.2-1.3-.3-1.6-.3-3.4-.4-6.9-.4-10.4-.8l-4.5,2ZM58.5,57l-1.1-.4-9.5,3.6,1.3,2.5h.3s9.1-5.7,9.1-5.7ZM155.5,60.2l-9.5-3.6-1.1.4,9.1,5.7h.3s1.3-2.5,1.3-2.5ZM63.9,57.2l-3.8.3c-3.3,2.4-6.8,4.4-10.2,6.5l.6,1.3c1.1.6,1.6,0,2.5-.5,1.5-.9,3.1-2,4.6-3s5.1-2.8,5.8-3.7.4-.6.5-.9ZM152.8,65.4c.1,0,.4-1,.6-1.2v-.2c-3.5-2.1-7-4.1-10.3-6.5l-3.8-.3c.2.3.3.6.5.9.7.9,4.5,2.9,5.8,3.7s3,2.1,4.6,3,1.1.7,1.4.8,1.1-.2,1.1-.2ZM104.4,58.6h-5.6l2.7,6.3c.3,0,.2,0,.3-.2,1.1-1.7,1.7-4.3,2.6-6.2ZM96.3,59.1l-10.3.5,1.3,7.7,9-8.2ZM117.2,59.6l-10.3-.5,8.9,8.2,1.3-7.7ZM65.5,59.2l-2.1.3-10.7,6.4,2.9.9,9.9-7.5ZM150.5,65.8c-3.7-1.9-7.2-4.1-10.7-6.3l-2.1-.3,9.9,7.5c.1,0,2.3-.6,2.6-.7s.3,0,.3-.3ZM63.4,69.1l3-8.9-9.4,6.9,6.3,2ZM139.9,69.1l6.3-2-9.4-6.9,3,8.9ZM65.9,70l3.5,1c.2,0,.7-.5.8-.6.5-.5,3.2-3.4,3.4-3.8s.2-2.1.2-2.7,0-1.4,0-2.1c-2.2,2.2-4.5,4.3-6.6,6.5s-1,1.1-1.3,1.4-.2.1-.1.3ZM137.4,70c0-.2,0-.2-.1-.3-.2-.3-1-1.1-1.3-1.4-2.1-2.3-4.4-4.3-6.6-6.5,0,.7,0,1.4,0,2.1s0,2.2.2,2.7,2.9,3.3,3.4,3.8.7.6.8.6l3.5-1ZM115.7,69.7c-2-.1-4-.8-5.9-1.2s-5.5-1-8.2-1.6c-4.6.8-9.2,2.1-13.8,2.8-.2,0-.2,0-.2.2s1.3,2.7,1.5,2.7c2.9-.6,5.9-.8,8.8-1.1s2.8-.6,3.8-.6,2.6.5,3.7.6c2.9.4,5.9.5,8.7,1.1.2,0,.2,0,.3-.2.1-.2,1.1-2.1,1.2-2.3s0-.2,0-.4ZM111.6,77.9c-3.5-.2-7-1.1-10.5-1.3l-9.6,1.3,1.1,2.3h17.7s.2,0,.2,0l1-2.3ZM108.1,85.7h-12.9l1.2,2.5h10.5s1.2-2.5,1.2-2.5Z"/>
  <path class="st0" d="M66.9,134.1c.3-1.4-.8-2.4-3.4-3.1l-2.4-.6c-3.9-1-6.7-2.3-8.5-4.1-1.8-1.8-2.6-3.8-2.5-6.2.1-3.3,1.6-6,4.6-8,3-2.1,6.6-3.1,10.8-3,4.2,0,7.7,1.1,10.3,3.1,2.6,2,4,4.7,4,8.1h-10.9c0-2.7-1.2-4.1-3.8-4.1s-2.1.3-3.1.9c-1,.6-1.5,1.5-1.7,2.5-.4,1.7,1.2,2.9,4.8,3.5,3.1.7,5.5,1.5,7.1,2.4,1.7.9,3,2.1,3.9,3.4.9,1.3,1.3,3,1.2,4.9,0,2.1-.8,3.9-2.1,5.5-1.4,1.6-3.3,2.9-5.9,3.9s-5.3,1.4-8.3,1.4c-2.6,0-5-.5-7.2-1.5-2.2-1-4-2.4-5.2-4.1-1.3-1.7-1.9-3.7-1.9-6h10.2c0,3.1,1.6,4.6,4.8,4.6,1.4,0,2.5-.3,3.5-.9,1-.6,1.6-1.4,1.8-2.5Z"/>
  <path class="st0" d="M97.3,128.9l9.3-19.2h12.1l-21.1,39.3c-1.6,3.1-3.4,5.3-5.4,6.7-2,1.4-4.5,2.1-7.3,2.1s-2.9-.2-4.8-.7l.8-7.6h1.3c1.4,0,2.5-.2,3.6-.6,1-.4,1.9-1.2,2.6-2.4l1.6-2.8-5.8-34h11.3l2,19.2Z"/>
  <path class="st0" d="M131.6,109.7l-.8,4.1c2.9-3.2,6.3-4.8,10.4-4.7,3.3,0,5.8,1.2,7.4,3.5,1.6,2.3,2.2,5.6,1.8,9.8l-3.8,21.5h-11l3.8-21.6c0-.7.1-1.4,0-2-.2-2-1.4-3-3.7-3-1.9,0-3.7.8-5.3,2.4l-4.5,24.2h-10.9l6.2-34.2h10.2Z"/>
  <path class="st0" d="M154.7,126.7c.7-5.4,2.4-9.7,5.2-13,2.8-3.2,6.4-4.8,10.8-4.7,3.1,0,5.6,1.3,7.6,3.7l8.4-43.4h11l-13.7,74.6h-9.7l.5-3.7c-2.7,3-5.7,4.4-8.9,4.4-3.5,0-6.2-1.3-8.1-3.7-2-2.4-3-5.6-3.1-9.6,0-1.3,0-2.6.1-3.9v-.7ZM165.6,127.5c-.2,1.3-.3,2.5-.2,3.5,0,3.5,1.2,5.3,3.7,5.3,2.1,0,4.1-.9,5.8-2.9l2.5-13.1c-.7-1.9-2.2-2.9-4.4-3-2,0-3.7.8-4.9,2.5-1.3,1.7-2,4.3-2.4,7.7Z"/>
  <path class="st0" d="M201.9,143.9h-11l6.2-34.2h11l-6.2,34.2Z"/>
  <path class="st0" d="M222,126.5c.6-6.3,2.8-9.4,6.7-9.2,1.9,0,3.2.9,3.7,2.6.2-3.1,1.3-5.9,3.3-8.2.3-.3.6-.6.9-.9-2-1-4.3-1.6-7-1.7-3.3,0-6.3.6-9,2.1-2.7,1.5-4.8,3.5-6.5,6.2s-2.7,5.7-3,9.2v.8c-.6,5.1.5,9.2,3,12.4,2.6,3.2,6.3,4.8,11.1,4.9,2.4,0,4.6-.3,6.8-1.1-2-2.3-3-5-3.1-8-.8.7-1.9,1-3.3.9-2.5,0-3.8-1.9-3.8-5.4v-1.2s.3-3.2.3-3.2Z"/>
  <g>
    <path class="st0" d="M263,137.4l2.7-16.1c.2-2.4-.1-4.5-1.2-6.3-1-1.8-2.6-3.2-4.6-4.3-2.1-1-4.4-1.6-7.2-1.6-2.8,0-5.5.4-8,1.3-2,.7-3.6,1.7-4.9,2.9-.4.3-.7.7-1.1,1.1-1.5,1.7-2.2,3.7-2.4,6h6.5s4.5,0,4.5,0c.5-2.5,2-3.8,4.4-3.8,1.9,0,2.9,1.1,3,3v1.7c-.1,0-.5,1.9-.5,1.9h-3.7c-5.5,0-9.8.9-12.9,2.9-2.3,1.5-3.8,3.4-4.5,5.7-.3.9-.4,1.8-.4,2.8-.1,2.7.8,5.1,2.8,7,0,0,0,0,0,0,2.1,1.9,4.7,2.9,7.8,3,3.4,0,6.4-1.2,8.8-3.7,0,1.2.1,2.3.5,3.1h10.6v-.6c-.5-1.1-.7-2.4-.6-4l.2-2ZM252.4,134.2c-1.7,2-3.7,2.9-5.9,2.8-.9,0-1.6-.3-2.1-.9-.5-.6-.6-1.3-.5-2.1.2-1.6,1-2.9,2.2-3.8s2.8-1.4,4.5-1.5h2.8s-1.1,5.5-1.1,5.5Z"/>
    <path class="st0" d="M263,137.4l2.7-16.1c.2-2.4-.1-4.5-1.2-6.3-1-1.8-2.6-3.2-4.6-4.3-2.1-1-4.4-1.6-7.2-1.6-2.8,0-5.5.4-8,1.3-2,.7-3.6,1.7-4.9,2.9-.4.3-.7.7-1.1,1.1-1.5,1.7-2.2,3.7-2.4,6h6.5s4.5,0,4.5,0c.5-2.5,2-3.8,4.4-3.8,1.9,0,2.9,1.1,3,3v1.7c-.1,0-.5,1.9-.5,1.9h-3.7c-5.5,0-9.8.9-12.9,2.9-2.3,1.5-3.8,3.4-4.5,5.7-.3.9-.4,1.8-.4,2.8-.1,2.7.8,5.1,2.8,7,0,0,0,0,0,0,2.1,1.9,4.7,2.9,7.8,3,3.4,0,6.4-1.2,8.8-3.7,0,1.2.1,2.3.5,3.1h10.6v-.6c-.5-1.1-.7-2.4-.6-4l.2-2ZM252.4,134.2c-1.7,2-3.7,2.9-5.9,2.8-.9,0-1.6-.3-2.1-.9-.5-.6-.6-1.3-.5-2.1.2-1.6,1-2.9,2.2-3.8s2.8-1.4,4.5-1.5h2.8s-1.1,5.5-1.1,5.5Z"/>
  </g>
  <path class="st0" d="M281.6,79.6l-2.6,13.8c.1-.1.2-.2.3-.4l2.5-13.1c0-.1,0-.2-.1-.3Z"/>
  <path class="st0" d="M308.7,144.5c-3.2,0-6.1-.7-8.6-2.2-2.5-1.4-4.4-3.4-5.7-5.9-1.3-2.5-1.8-5.3-1.5-8.4v-.9c.7-5.6,2.8-10.1,6.3-13.4,3.5-3.3,7.8-4.9,12.9-4.7,3.1,0,5.7.8,7.9,2.2s3.8,3.4,4.8,6c1,2.5,1.4,5.4,1,8.6l-.6,4.3h-21.4c0,1.8.6,3.2,1.6,4.4,1,1.1,2.5,1.7,4.5,1.8,3.2,0,6-1.1,8.5-3.5l4.6,5.8c-1.4,1.8-3.2,3.3-5.7,4.3-2.4,1-5.1,1.6-8,1.6h-.6ZM311.4,117.3c-1.6,0-2.9.4-4,1.4-1.1,1-2.1,2.6-3,4.8h10.9l.2-.9c.1-.7.2-1.4,0-2.1-.4-2.1-1.8-3.2-4.2-3.2Z"/>
  <path class="st0" d="M161.9,95.9c1.6,0,2.8-.4,3.7-1.2.9-.9,1.5-2,1.7-3.4h10.2c-.1,2.5-.9,4.7-2.3,6.7-1.4,2-3.4,3.5-5.8,4.6s-5,1.6-7.8,1.5c-4.8,0-8.5-1.7-11.1-4.9-2.6-3.2-3.6-7.3-3.2-12.4v-.8c.5-3.5,1.5-6.5,3.2-9.2,1.6-2.7,3.8-4.7,6.5-6.2,2.7-1.5,5.7-2.1,9-2.1,4.2,0,7.5,1.4,9.9,3.8,2.4,2.5,3.6,5.8,3.5,9.9h-10.2c.1-3.6-1.3-5.5-4.1-5.5-3.9-.1-6.1,3-6.6,9.2l-.3,3.2v1.2c0,3.5,1.2,5.3,3.8,5.4Z"/>
  <path class="st0" d="M187.6,60.7c0-1.5.5-2.8,1.7-3.9,1.2-1,2.6-1.5,4.3-1.5s3.1.5,4.3,1.4c1.1.9,1.7,2.1,1.8,3.6,0,1.6-.5,2.9-1.7,3.9-1.2,1-2.6,1.5-4.3,1.5s-3.1-.5-4.2-1.4-1.8-2.1-1.8-3.7Z"/>
  <path class="st0" d="M219.1,68.7c-3.3,0-6.3.6-9,2.1-2.7,1.5-4.8,3.5-6.5,6.2-1.6,2.7-2.7,5.7-3.1,9.2v.8c-.6,5.1.5,9.2,3.1,12.4,2.6,3.2,6.3,4.8,11.1,4.9,2.4,0,4.6-.3,6.8-1.1-2-2.3-3.1-5-3.2-8-.8.6-2,1-3.3.9-2.5,0-3.8-1.9-3.8-5.4v-1.2s.3-3.2.3-3.2c.6-6.3,2.8-9.4,6.7-9.2,1.9,0,3.2.9,3.7,2.6.2-3.1,1.3-5.9,3.3-8.2.3-.3.6-.6.9-.9-2-1.1-4.3-1.6-7-1.7Z"/>
  <path class="st0" d="M297.3,54.9h-11l-3.5,17.4c-2-2.4-4.6-3.6-7.6-3.7-4.4,0-8.1,1.5-10.8,4.7-2.8,3.2-4.5,7.6-5.2,13v.7c-.2,1.3-.3,2.6-.2,3.9.1,4,1.2,7.2,3.1,9.6,2,2.4,4.7,3.6,8.1,3.7,3.1,0,5-1.2,7.5-3.8l-1.8,9.3h-4.5l-1.3,7.4h4.5l-2.9,17c-.3,3.2.4,5.7,2.1,7.6,1.7,1.8,4.2,2.8,7.6,2.8,2.1,0,4-.2,5.9-.8l.8-7.7c-1.4.1-2.4.2-2.9.2-1.2,0-2-.3-2.2-.9-.3-.5-.4-1.4-.2-2.4l2.8-15.7h5.8l1.4-7.4h-5.8l10.5-54.8ZM273.5,96c-2.5,0-3.7-1.8-3.7-5.3,0-1,0-2.2.2-3.5.3-3.4,1.1-6,2.4-7.7,1.2-1.7,2.9-2.6,4.9-2.5,2,0,3.5.9,4.2,2.6h0c0,.1.1.2.1.4l-2.5,13.1c-.1.1-.2.2-.3.4h0c-1.6,1.8-3.4,2.6-5.4,2.6Z"/>
  <path class="st0" d="M315.1,103.5c-.3-.8-.5-1.9-.5-3.1-2.5,2.6-5.4,3.8-8.8,3.7-3.1,0-5.7-1-7.8-3s-3-4.3-2.9-7.1c.1-3.7,1.7-6.6,4.9-8.6s7.4-3,12.9-3h3.7c0,0,.4-1.9.4-1.9v-1.7c0-1.9-1-2.9-2.9-3-2.4,0-3.9,1.2-4.4,3.8h-11c.1-2.3.9-4.3,2.4-6,1.5-1.7,3.5-3,6-3.9,2.5-.9,5.2-1.3,8-1.3,2.7,0,5.1.6,7.2,1.6,2,1,3.6,2.4,4.6,4.3s1.4,3.9,1.2,6.3l-2.7,16.1-.2,2c0,1.6.1,2.9.6,4v.6h-10.7ZM308.9,96.6c2.2,0,4.2-.9,5.9-2.8l1.1-5.5h-2.8c-1.8,0-3.3.5-4.5,1.4s-2,2.2-2.2,3.8c-.1.9,0,1.6.5,2.1.5.6,1.1.9,2.1.9Z"/>
  <g>
    <path class="st0" d="M252.5,97l2.7-16.1c.2-2.4-.1-4.5-1.2-6.3s-2.6-3.2-4.6-4.3-4.4-1.6-7.2-1.6c-2.8,0-5.5.4-8,1.3-2,.7-3.6,1.7-4.9,2.8-.4.3-.7.7-1.1,1.1-1.5,1.7-2.2,3.7-2.4,6h6.5s4.5,0,4.5,0c.5-2.6,2-3.8,4.4-3.8,1.9,0,2.9,1.1,3,3v1.7c-.1,0-.5,1.9-.5,1.9h-3.7c-5.5,0-9.8.9-12.9,2.9-2.3,1.4-3.8,3.4-4.5,5.7-.3.9-.4,1.8-.4,2.8-.1,2.7.8,5.1,2.8,7,0,0,0,0,0,0,2.1,1.9,4.6,2.9,7.8,3,3.4,0,6.4-1.2,8.8-3.7,0,1.2.2,2.3.5,3.1h10.6v-.6c-.5-1.1-.7-2.4-.6-4l.2-2ZM241.9,93.8c-1.7,2-3.7,2.9-5.9,2.8-.9,0-1.6-.3-2.1-.9-.5-.6-.6-1.3-.5-2.1.2-1.6,1-2.9,2.2-3.8s2.8-1.4,4.5-1.5h2.8s-1.1,5.5-1.1,5.5Z"/>
    <path class="st0" d="M252.5,97l2.7-16.1c.2-2.4-.1-4.5-1.2-6.3s-2.6-3.2-4.6-4.3-4.4-1.6-7.2-1.6c-2.8,0-5.5.4-8,1.3-2,.7-3.6,1.7-4.9,2.8-.4.3-.7.7-1.1,1.1-1.5,1.7-2.2,3.7-2.4,6h6.5s4.5,0,4.5,0c.5-2.6,2-3.8,4.4-3.8,1.9,0,2.9,1.1,3,3v1.7c-.1,0-.5,1.9-.5,1.9h-3.7c-5.5,0-9.8.9-12.9,2.9-2.3,1.4-3.8,3.4-4.5,5.7-.3.9-.4,1.8-.4,2.8-.1,2.7.8,5.1,2.8,7,0,0,0,0,0,0,2.1,1.9,4.6,2.9,7.8,3,3.4,0,6.4-1.2,8.8-3.7,0,1.2.2,2.3.5,3.1h10.6v-.6c-.5-1.1-.7-2.4-.6-4l.2-2ZM241.9,93.8c-1.7,2-3.7,2.9-5.9,2.8-.9,0-1.6-.3-2.1-.9-.5-.6-.6-1.3-.5-2.1.2-1.6,1-2.9,2.2-3.8s2.8-1.4,4.5-1.5h2.8s-1.1,5.5-1.1,5.5Z"/>
  </g>
</svg>